#N canvas 1025 256 277 250 10;
#X obj 21 97 osc~ 880;
#X obj 20 202 dac~;
#X obj 20 128 *~ 0.3;
#X obj 96 147 *~ 0.3;
#X obj 167 23 loadbang;
#X obj 167 82 random 128;
#X obj 167 109 send cursor;
#X obj 20 175 *~;
#X obj 95 116 osc~ 2;
#X obj 167 51 metro 100;
#X obj 95 23 r FromCpp;
#X obj 95 87 vline~;
#X msg 95 63 \$1 100;
#X floatatom 95 43 5 0 0 0 - - - 0;
#X connect 0 0 2 0;
#X connect 2 0 7 0;
#X connect 3 0 7 1;
#X connect 4 0 9 0;
#X connect 5 0 6 0;
#X connect 7 0 1 0;
#X connect 7 0 1 1;
#X connect 8 0 3 0;
#X connect 9 0 5 0;
#X connect 10 0 13 0;
#X connect 11 0 8 0;
#X connect 12 0 11 0;
#X connect 13 0 12 0;
